<svg width="108" height="108" viewBox="0 0 108 108" fill="none" xmlns="http://www.w3.org/2000/svg">
<rect width="108" height="108" fill="#0E141B"/>
<path d="M68.4011 37.5783C67.7626 37.6223 67.0757 37.687 66.3992 37.7758C66.3204 37.3236 66.2519 36.8956 66.149 36.4537C64.7224 29.4324 61.6227 24.583 57.9168 24.1365C54.3627 23.7109 50.4306 27.4191 47.4858 33.5065C47.1917 34.0894 46.9183 34.7206 46.669 35.3414C46.2309 35.1856 45.8273 35.0436 45.3995 34.9119C38.6004 32.6426 32.8747 32.8871 30.6345 35.8729C28.4946 38.7587 29.7336 44.0025 33.5536 49.6016C33.9325 50.1543 34.3115 50.707 34.7387 51.239C34.1203 51.7317 33.5364 52.2382 32.9767 52.7345C28.0669 57.2318 25.7209 61.9775 27.1144 65.2406C28.5595 68.6245 33.9789 70.3398 40.8748 69.8242C41.4305 69.7869 41.9759 69.7255 42.5454 69.6538C42.6652 70.4028 42.7886 71.0932 42.9464 71.7974C44.3805 78.3011 47.3083 82.6809 50.8382 83.1169C54.4854 83.5599 58.6731 79.7139 61.6733 73.4885C61.9155 72.985 62.1336 72.4917 62.3655 71.964C63.0553 72.241 63.7487 72.4593 64.4179 72.688C70.7619 74.6944 76.046 74.3526 78.1721 71.5013C80.3742 68.5604 79.1425 62.9991 75.2225 57.2997C74.9194 56.8576 74.5921 56.4258 74.2648 55.994C74.5619 55.7528 74.8487 55.4874 75.1458 55.2462C80.5184 50.4941 83.1685 45.3899 81.7028 41.9576C80.337 38.6256 75.1658 37.0901 68.4011 37.5783ZM49.7966 34.6346C52.3365 29.406 55.5085 26.3938 57.6581 26.6762C59.9493 26.9552 62.4669 30.91 63.7049 36.9544C63.7873 37.348 63.8696 37.7415 63.9277 38.1453C61.4286 38.5839 58.798 39.25 56.1326 40.1024C53.7257 38.6153 51.3427 37.3181 49.0593 36.3212C49.2706 35.7451 49.5163 35.1829 49.7966 34.6346ZM44.4338 61.1596C45.3198 61.8958 46.2541 62.6114 47.1884 63.327C48.1572 64.0565 49.1296 64.7272 50.1019 65.398C48.2307 65.9685 46.4148 66.4009 44.7337 66.7473C44.5462 64.9698 44.4589 63.0923 44.4338 61.1596ZM42.0907 55.6728C40.7223 54.3424 39.4713 53.019 38.3376 51.7026C39.7539 50.6691 41.2978 49.6669 42.9211 48.7165C42.7229 49.8585 42.5592 51.0144 42.43 52.1842C42.3008 53.3539 42.1716 54.5237 42.0907 55.6728ZM44.5001 57.9019C44.5714 56.1281 44.7153 54.3234 44.9419 52.5118C45.1583 50.6761 45.4539 48.8923 45.8047 47.1707C47.3726 46.3582 49.0094 45.5735 50.7014 44.851C52.3933 44.1284 54.0921 43.4887 55.7632 42.918C57.2252 43.8655 58.7182 44.8855 60.1938 45.9987C61.6695 47.1118 63.0967 48.2456 64.4067 49.3724C64.3251 51.122 64.1674 52.9612 63.951 54.7969C63.7347 56.6326 63.4735 58.4303 63.1469 60.1416C61.5791 60.954 59.9319 61.7146 58.2158 62.4475C56.5238 63.17 54.8354 63.8339 53.1885 64.3943C51.6919 63.4329 50.1886 62.3888 48.7233 61.2998C47.2477 60.1866 45.8446 59.0425 44.5001 57.9019ZM66.4665 55.0659C66.6096 53.8616 66.7285 52.6677 66.8232 51.4841C68.2605 52.8423 69.5806 54.1933 70.7143 55.5097C69.298 56.5432 67.7057 57.5661 65.9858 58.5578C66.1598 57.426 66.3235 56.2701 66.4665 55.0659ZM64.473 46.1146C63.5629 45.3887 62.6527 44.6628 61.6839 43.9334C60.7496 43.2178 59.8118 42.5609 58.8497 41.9143C60.6829 41.3886 62.4746 40.9665 64.2006 40.6581C64.3916 42.377 64.4824 44.1958 64.473 46.1146ZM48.0934 38.677C49.6524 39.3831 51.2975 40.2238 52.9597 41.1716C51.8755 41.5774 50.7775 42.0177 49.6898 42.4822C48.6021 42.9467 47.5489 43.425 46.506 43.9275C46.9812 42.0956 47.5115 40.3259 48.0934 38.677ZM32.6618 37.4078C34.0446 35.5598 38.7315 35.3588 44.5958 37.3128C44.9649 37.4409 45.3582 37.5588 45.7376 37.7111C44.8752 40.1085 44.1298 42.7131 43.5534 45.4457C41.0945 46.7815 38.7942 48.2211 36.7389 49.6989C36.3461 49.1808 35.9879 48.6764 35.6296 48.1721C32.3849 43.3847 31.3688 39.1316 32.6618 37.4078ZM42.2139 67.1375C41.6927 67.1886 41.1819 67.2638 40.6745 67.2804C37.6235 67.4974 34.9181 67.2523 32.8725 66.6112C31.0234 66.029 29.8512 65.1578 29.459 64.2393C28.6126 62.2573 30.5018 58.4497 34.6895 54.6037C35.2009 54.1282 35.7467 53.6664 36.3271 53.2185C37.9535 55.1532 39.8387 57.0917 41.9277 58.9718C41.8377 61.8396 41.9549 64.5902 42.2139 67.1375ZM59.397 72.3743C58.0648 75.1438 56.4951 77.3574 54.9126 78.8048C53.4787 80.1316 52.1493 80.6993 51.1555 80.5807C49.0162 80.3226 46.6499 76.789 45.4423 71.2174C45.3154 70.5857 45.1782 69.9298 45.0549 69.2394C47.5092 68.7629 50.1295 68.0726 52.8812 67.1547C55.3123 68.6315 57.7195 69.9184 60.0477 70.9533C59.8296 71.4465 59.6357 71.9294 59.397 72.3743ZM60.9549 68.5939C59.3373 67.8844 57.6818 67.0195 55.9852 66.0579C57.0452 65.6624 58.119 65.2324 59.2067 64.7679C60.3186 64.2931 61.4201 63.7941 62.463 63.2916C62.0188 65.196 61.5126 66.9554 60.9549 68.5939ZM76.5023 65.7842C76.9415 67.6828 76.7844 69.1217 76.1587 69.9319C74.8657 71.6558 70.6447 71.9437 65.1907 70.2145C64.5663 70.0239 63.9213 69.785 63.2762 69.546C64.1007 67.1934 64.7873 64.5853 65.357 61.7699C67.8884 60.4031 70.2473 58.9671 72.2682 57.4754C72.5851 57.883 72.8676 58.2768 73.1259 58.6809C74.8931 61.2128 76.0287 63.6715 76.5023 65.7842ZM73.5091 53.2873C73.2603 53.5079 72.9874 53.7388 72.7144 53.9696C71.0742 52.0694 69.1648 50.1412 67.0068 48.2334C67.0933 45.4243 67.007 42.7462 66.7549 40.2818C67.383 40.2136 67.9871 40.1557 68.5911 40.0978C74.386 39.6808 78.574 40.9217 79.4204 42.9037C80.3046 45.0411 78.1354 49.1969 73.5091 53.2873Z" fill="#53C1DE"/>
<path d="M52.3523 48.7183C55.0352 47.5726 58.1638 48.8086 59.3199 51.5158C60.4656 54.1988 59.2295 57.3273 56.5224 58.4834C53.8152 59.6394 50.7108 58.393 49.5548 55.6859C48.3987 52.9787 49.6451 49.8744 52.3523 48.7183Z" fill="#53C1DE"/>
</svg>
